<svg aria-labelledby="chart-title-my-svg" aria-roledescription="er" role="graphics-document document" viewBox="0 -61 360.8860168457031 438" style="max-width: 360.886px; background-color: transparent;" xmlns:xlink="http://www.w3.org/1999/xlink" xmlns="http://www.w3.org/2000/svg" width="100%" id="my-svg"><title id="chart-title-my-svg">Tasks and Steps</title><style>#my-svg{font-family:"trebuchet ms",verdana,arial,sans-serif;font-size:16px;fill:#ccc;}#my-svg .error-icon{fill:#a44141;}#my-svg .error-text{fill:#ddd;stroke:#ddd;}#my-svg .edge-thickness-normal{stroke-width:2px;}#my-svg .edge-thickness-thick{stroke-width:3.5px;}#my-svg .edge-pattern-solid{stroke-dasharray:0;}#my-svg .edge-pattern-dashed{stroke-dasharray:3;}#my-svg .edge-pattern-dotted{stroke-dasharray:2;}#my-svg .marker{fill:lightgrey;stroke:lightgrey;}#my-svg .marker.cross{stroke:lightgrey;}#my-svg svg{font-family:"trebuchet ms",verdana,arial,sans-serif;font-size:16px;}#my-svg .entityBox{fill:#1f2020;stroke:#81B1DB;}#my-svg .attributeBoxOdd{fill:hsl(0, 0%, 32%);stroke:#81B1DB;}#my-svg .attributeBoxEven{fill:hsl(0, 0%, 22%);stroke:#81B1DB;}#my-svg .relationshipLabelBox{fill:hsl(20, 1.5873015873%, 12.3529411765%);opacity:0.7;background-color:hsl(20, 1.5873015873%, 12.3529411765%);}#my-svg .relationshipLabelBox rect{opacity:0.5;}#my-svg .relationshipLine{stroke:lightgrey;}#my-svg .entityTitleText{text-anchor:middle;font-size:18px;fill:#ccc;}#my-svg #MD_PARENT_START{fill:#f5f5f5!important;stroke:lightgrey!important;stroke-width:1;}#my-svg #MD_PARENT_END{fill:#f5f5f5!important;stroke:lightgrey!important;stroke-width:1;}#my-svg :root{--mermaid-font-family:"trebuchet ms",verdana,arial,sans-serif;}</style><g/><defs><marker orient="auto" markerHeight="240" markerWidth="190" refY="7" refX="0" id="MD_PARENT_START"><path d="M 18,7 L9,13 L1,7 L9,1 Z"/></marker></defs><defs><marker orient="auto" markerHeight="28" markerWidth="20" refY="7" refX="19" id="MD_PARENT_END"><path d="M 18,7 L9,13 L1,7 L9,1 Z"/></marker></defs><defs><marker orient="auto" markerHeight="18" markerWidth="18" refY="9" refX="0" id="ONLY_ONE_START"><path d="M9,0 L9,18 M15,0 L15,18" fill="none" stroke="gray"/></marker></defs><defs><marker orient="auto" markerHeight="18" markerWidth="18" refY="9" refX="18" id="ONLY_ONE_END"><path d="M3,0 L3,18 M9,0 L9,18" fill="none" stroke="gray"/></marker></defs><defs><marker orient="auto" markerHeight="18" markerWidth="30" refY="9" refX="0" id="ZERO_OR_ONE_START"><circle r="6" cy="9" cx="21" fill="white" stroke="gray"/><path d="M9,0 L9,18" fill="none" stroke="gray"/></marker></defs><defs><marker orient="auto" markerHeight="18" markerWidth="30" refY="9" refX="30" id="ZERO_OR_ONE_END"><circle r="6" cy="9" cx="9" fill="white" stroke="gray"/><path d="M21,0 L21,18" fill="none" stroke="gray"/></marker></defs><defs><marker orient="auto" markerHeight="36" markerWidth="45" refY="18" refX="18" id="ONE_OR_MORE_START"><path d="M0,18 Q 18,0 36,18 Q 18,36 0,18 M42,9 L42,27" fill="none" stroke="gray"/></marker></defs><defs><marker orient="auto" markerHeight="36" markerWidth="45" refY="18" refX="27" id="ONE_OR_MORE_END"><path d="M3,9 L3,27 M9,18 Q27,0 45,18 Q27,36 9,18" fill="none" stroke="gray"/></marker></defs><defs><marker orient="auto" markerHeight="36" markerWidth="57" refY="18" refX="18" id="ZERO_OR_MORE_START"><circle r="6" cy="18" cx="48" fill="white" stroke="gray"/><path d="M0,18 Q18,0 36,18 Q18,36 0,18" fill="none" stroke="gray"/></marker></defs><defs><marker orient="auto" markerHeight="36" markerWidth="57" refY="18" refX="39" id="ZERO_OR_MORE_END"><circle r="6" cy="18" cx="9" fill="white" stroke="gray"/><path d="M21,18 Q39,0 57,18 Q39,36 21,18" fill="none" stroke="gray"/></marker></defs><path style="stroke: gray; fill: none;" marker-start="url(#ONLY_ONE_START)" marker-end="url(#ZERO_OR_ONE_END)" d="M229.7154541015625,253.8209921640396L241.38212076822916,249.51749347003303C253.04878743489584,245.2139947760264,276.3821207682292,236.60699738801318,290.9654541015625,232.3034986940066C305.5487874348958,228,311.3821207682292,228,317.2154541015625,238.75C323.0487874348958,249.5,328.8821207682292,271,328.8821207682292,292.5C328.8821207682292,314,323.0487874348958,335.5,317.2154541015625,346.25C311.3821207682292,357,305.5487874348958,357,290.9654541015625,352.6965013059934C276.3821207682292,348.3930026119868,253.04878743489584,339.78600522397363,241.38212076822916,335.482506529967L229.7154541015625,331.1790078359604" class="er relationshipLine"/><path style="stroke: gray; fill: none;" marker-start="url(#ONLY_ONE_START)" marker-end="url(#ONLY_ONE_END)" d="M124.85772705078125,128L124.85772705078125,136.33333333333334C124.85772705078125,144.66666666666666,124.85772705078125,161.33333333333334,124.85772705078125,178C124.85772705078125,194.66666666666666,124.85772705078125,211.33333333333334,124.85772705078125,219.66666666666666L124.85772705078125,228" class="er relationshipLine"/><g transform="translate(20,228 )" id="entity-steps-9f52b7fe-5175-560c-8193-e79d92ebca66"><rect height="129" width="209.7154541015625" y="0" x="0" class="er entityBox"/><text style="dominant-baseline: middle; text-anchor: middle; font-size: 12px;" transform="translate(104.85772705078125,12)" y="0" x="0" id="text-entity-steps-9f52b7fe-5175-560c-8193-e79d92ebca66" class="er entityLabel">steps</text><rect height="21" width="59.28125" y="24" x="0" class="er attributeBoxOdd"/><text style="dominant-baseline: middle; font-size: 10.2px;" transform="translate(5,34.5)" y="0" x="0" id="text-entity-steps-9f52b7fe-5175-560c-8193-e79d92ebca66-attr-1-type" class="er entityLabel">id</text><rect height="21" width="67.765625" y="24" x="59.28125" class="er attributeBoxOdd"/><text style="dominant-baseline: middle; font-size: 10.2px;" transform="translate(64.28125,34.5)" y="0" x="0" id="text-entity-steps-9f52b7fe-5175-560c-8193-e79d92ebca66-attr-1-name" class="er entityLabel">serial</text><rect height="21" width="23.79498291015625" y="24" x="127.046875" class="er attributeBoxOdd"/><text style="dominant-baseline: middle; font-size: 10.2px;" transform="translate(132.046875,34.5)" y="0" x="0" id="text-entity-steps-9f52b7fe-5175-560c-8193-e79d92ebca66-attr-1-key" class="er entityLabel">PK</text><rect height="21" width="58.87359619140625" y="24" x="150.84185791015625" class="er attributeBoxOdd"/><text style="dominant-baseline: middle; font-size: 10.2px;" transform="translate(155.84185791015625,34.5)" y="0" x="0" id="text-entity-steps-9f52b7fe-5175-560c-8193-e79d92ebca66-attr-1-comment" class="er entityLabel"/><rect height="21" width="59.28125" y="45" x="0" class="er attributeBoxEven"/><text style="dominant-baseline: middle; font-size: 10.2px;" transform="translate(5,55.5)" y="0" x="0" id="text-entity-steps-9f52b7fe-5175-560c-8193-e79d92ebca66-attr-2-type" class="er entityLabel">title</text><rect height="21" width="67.765625" y="45" x="59.28125" class="er attributeBoxEven"/><text style="dominant-baseline: middle; font-size: 10.2px;" transform="translate(64.28125,55.5)" y="0" x="0" id="text-entity-steps-9f52b7fe-5175-560c-8193-e79d92ebca66-attr-2-name" class="er entityLabel">varchar(255)</text><rect height="21" width="23.79498291015625" y="45" x="127.046875" class="er attributeBoxEven"/><text style="dominant-baseline: middle; font-size: 10.2px;" transform="translate(132.046875,55.5)" y="0" x="0" id="text-entity-steps-9f52b7fe-5175-560c-8193-e79d92ebca66-attr-2-key" class="er entityLabel"/><rect height="21" width="58.87359619140625" y="45" x="150.84185791015625" class="er attributeBoxEven"/><text style="dominant-baseline: middle; font-size: 10.2px;" transform="translate(155.84185791015625,55.5)" y="0" x="0" id="text-entity-steps-9f52b7fe-5175-560c-8193-e79d92ebca66-attr-2-comment" class="er entityLabel"/><rect height="21" width="59.28125" y="66" x="0" class="er attributeBoxOdd"/><text style="dominant-baseline: middle; font-size: 10.2px;" transform="translate(5,76.5)" y="0" x="0" id="text-entity-steps-9f52b7fe-5175-560c-8193-e79d92ebca66-attr-3-type" class="er entityLabel">description</text><rect height="21" width="67.765625" y="66" x="59.28125" class="er attributeBoxOdd"/><text style="dominant-baseline: middle; font-size: 10.2px;" transform="translate(64.28125,76.5)" y="0" x="0" id="text-entity-steps-9f52b7fe-5175-560c-8193-e79d92ebca66-attr-3-name" class="er entityLabel">text</text><rect height="21" width="23.79498291015625" y="66" x="127.046875" class="er attributeBoxOdd"/><text style="dominant-baseline: middle; font-size: 10.2px;" transform="translate(132.046875,76.5)" y="0" x="0" id="text-entity-steps-9f52b7fe-5175-560c-8193-e79d92ebca66-attr-3-key" class="er entityLabel"/><rect height="21" width="58.87359619140625" y="66" x="150.84185791015625" class="er attributeBoxOdd"/><text style="dominant-baseline: middle; font-size: 10.2px;" transform="translate(155.84185791015625,76.5)" y="0" x="0" id="text-entity-steps-9f52b7fe-5175-560c-8193-e79d92ebca66-attr-3-comment" class="er entityLabel"/><rect height="21" width="59.28125" y="87" x="0" class="er attributeBoxEven"/><text style="dominant-baseline: middle; font-size: 10.2px;" transform="translate(5,97.5)" y="0" x="0" id="text-entity-steps-9f52b7fe-5175-560c-8193-e79d92ebca66-attr-4-type" class="er entityLabel">completed</text><rect height="21" width="67.765625" y="87" x="59.28125" class="er attributeBoxEven"/><text style="dominant-baseline: middle; font-size: 10.2px;" transform="translate(64.28125,97.5)" y="0" x="0" id="text-entity-steps-9f52b7fe-5175-560c-8193-e79d92ebca66-attr-4-name" class="er entityLabel">boolean</text><rect height="21" width="23.79498291015625" y="87" x="127.046875" class="er attributeBoxEven"/><text style="dominant-baseline: middle; font-size: 10.2px;" transform="translate(132.046875,97.5)" y="0" x="0" id="text-entity-steps-9f52b7fe-5175-560c-8193-e79d92ebca66-attr-4-key" class="er entityLabel"/><rect height="21" width="58.87359619140625" y="87" x="150.84185791015625" class="er attributeBoxEven"/><text style="dominant-baseline: middle; font-size: 10.2px;" transform="translate(155.84185791015625,97.5)" y="0" x="0" id="text-entity-steps-9f52b7fe-5175-560c-8193-e79d92ebca66-attr-4-comment" class="er entityLabel"/><rect height="21" width="59.28125" y="108" x="0" class="er attributeBoxOdd"/><text style="dominant-baseline: middle; font-size: 10.2px;" transform="translate(5,118.5)" y="0" x="0" id="text-entity-steps-9f52b7fe-5175-560c-8193-e79d92ebca66-attr-5-type" class="er entityLabel">next_step</text><rect height="21" width="67.765625" y="108" x="59.28125" class="er attributeBoxOdd"/><text style="dominant-baseline: middle; font-size: 10.2px;" transform="translate(64.28125,118.5)" y="0" x="0" id="text-entity-steps-9f52b7fe-5175-560c-8193-e79d92ebca66-attr-5-name" class="er entityLabel">bigint</text><rect height="21" width="23.79498291015625" y="108" x="127.046875" class="er attributeBoxOdd"/><text style="dominant-baseline: middle; font-size: 10.2px;" transform="translate(132.046875,118.5)" y="0" x="0" id="text-entity-steps-9f52b7fe-5175-560c-8193-e79d92ebca66-attr-5-key" class="er entityLabel">FK</text><rect height="21" width="58.87359619140625" y="108" x="150.84185791015625" class="er attributeBoxOdd"/><text style="dominant-baseline: middle; font-size: 10.2px;" transform="translate(155.84185791015625,118.5)" y="0" x="0" id="text-entity-steps-9f52b7fe-5175-560c-8193-e79d92ebca66-attr-5-comment" class="er entityLabel">Linked List</text></g><g transform="translate(49.436798095703125,20 )" id="entity-tasks-f9bb64e5-9c5f-592a-b95a-6b32d188b25f"><rect height="108" width="150.84185791015625" y="0" x="0" class="er entityBox"/><text style="dominant-baseline: middle; text-anchor: middle; font-size: 12px;" transform="translate(75.42092895507812,12)" y="0" x="0" id="text-entity-tasks-f9bb64e5-9c5f-592a-b95a-6b32d188b25f" class="er entityLabel">tasks</text><rect height="21" width="59.28125" y="24" x="0" class="er attributeBoxOdd"/><text style="dominant-baseline: middle; font-size: 10.2px;" transform="translate(5,34.5)" y="0" x="0" id="text-entity-tasks-f9bb64e5-9c5f-592a-b95a-6b32d188b25f-attr-1-type" class="er entityLabel">id</text><rect height="21" width="67.765625" y="24" x="59.28125" class="er attributeBoxOdd"/><text style="dominant-baseline: middle; font-size: 10.2px;" transform="translate(64.28125,34.5)" y="0" x="0" id="text-entity-tasks-f9bb64e5-9c5f-592a-b95a-6b32d188b25f-attr-1-name" class="er entityLabel">serial</text><rect height="21" width="23.79498291015625" y="24" x="127.046875" class="er attributeBoxOdd"/><text style="dominant-baseline: middle; font-size: 10.2px;" transform="translate(132.046875,34.5)" y="0" x="0" id="text-entity-tasks-f9bb64e5-9c5f-592a-b95a-6b32d188b25f-attr-1-key" class="er entityLabel">PK</text><rect height="21" width="59.28125" y="45" x="0" class="er attributeBoxEven"/><text style="dominant-baseline: middle; font-size: 10.2px;" transform="translate(5,55.5)" y="0" x="0" id="text-entity-tasks-f9bb64e5-9c5f-592a-b95a-6b32d188b25f-attr-2-type" class="er entityLabel">title</text><rect height="21" width="67.765625" y="45" x="59.28125" class="er attributeBoxEven"/><text style="dominant-baseline: middle; font-size: 10.2px;" transform="translate(64.28125,55.5)" y="0" x="0" id="text-entity-tasks-f9bb64e5-9c5f-592a-b95a-6b32d188b25f-attr-2-name" class="er entityLabel">varchar(255)</text><rect height="21" width="23.79498291015625" y="45" x="127.046875" class="er attributeBoxEven"/><text style="dominant-baseline: middle; font-size: 10.2px;" transform="translate(132.046875,55.5)" y="0" x="0" id="text-entity-tasks-f9bb64e5-9c5f-592a-b95a-6b32d188b25f-attr-2-key" class="er entityLabel"/><rect height="21" width="59.28125" y="66" x="0" class="er attributeBoxOdd"/><text style="dominant-baseline: middle; font-size: 10.2px;" transform="translate(5,76.5)" y="0" x="0" id="text-entity-tasks-f9bb64e5-9c5f-592a-b95a-6b32d188b25f-attr-3-type" class="er entityLabel">description</text><rect height="21" width="67.765625" y="66" x="59.28125" class="er attributeBoxOdd"/><text style="dominant-baseline: middle; font-size: 10.2px;" transform="translate(64.28125,76.5)" y="0" x="0" id="text-entity-tasks-f9bb64e5-9c5f-592a-b95a-6b32d188b25f-attr-3-name" class="er entityLabel">text</text><rect height="21" width="23.79498291015625" y="66" x="127.046875" class="er attributeBoxOdd"/><text style="dominant-baseline: middle; font-size: 10.2px;" transform="translate(132.046875,76.5)" y="0" x="0" id="text-entity-tasks-f9bb64e5-9c5f-592a-b95a-6b32d188b25f-attr-3-key" class="er entityLabel"/><rect height="21" width="59.28125" y="87" x="0" class="er attributeBoxEven"/><text style="dominant-baseline: middle; font-size: 10.2px;" transform="translate(5,97.5)" y="0" x="0" id="text-entity-tasks-f9bb64e5-9c5f-592a-b95a-6b32d188b25f-attr-4-type" class="er entityLabel">first_step</text><rect height="21" width="67.765625" y="87" x="59.28125" class="er attributeBoxEven"/><text style="dominant-baseline: middle; font-size: 10.2px;" transform="translate(64.28125,97.5)" y="0" x="0" id="text-entity-tasks-f9bb64e5-9c5f-592a-b95a-6b32d188b25f-attr-4-name" class="er entityLabel">bigint</text><rect height="21" width="23.79498291015625" y="87" x="127.046875" class="er attributeBoxEven"/><text style="dominant-baseline: middle; font-size: 10.2px;" transform="translate(132.046875,97.5)" y="0" x="0" id="text-entity-tasks-f9bb64e5-9c5f-592a-b95a-6b32d188b25f-attr-4-key" class="er entityLabel">FK</text></g><rect height="14" width="23.34765625" y="285.4999694824219" x="317.2082824707031" class="er relationshipLabelBox"/><text style="text-anchor: middle; dominant-baseline: middle; font-size: 12px;" y="292.4999694824219" x="328.8821105957031" id="rel1" class="er relationshipLabel">next</text><rect height="14" width="19.99609375" y="171" x="114.85968017578125" class="er relationshipLabelBox"/><text style="text-anchor: middle; dominant-baseline: middle; font-size: 12px;" y="178" x="124.85772705078125" id="rel2" class="er relationshipLabel">first</text><text class="entityTitleText" y="-25" x="180.44300842285156">Tasks and Steps</text></svg>